<svg xmlns="http://www.w3.org/2000/svg" enable-background="new 0 0 24 24" viewBox="0 0 24 24" id="tripadvisor">
  <path d="M22.823,9.503c0.257-0.848,0.661-1.635,1.166-2.31L19.984,7.19l0.059,0.034c-2.257-1.407-4.932-2.224-7.802-2.224l-0.252,0.002C11.88,5.001,11.772,5,11.661,5C8.739,5,6.014,5.825,3.774,7.218L0.016,7.22L0,7.199c0.517,0.69,0.918,1.469,1.191,2.364c-1.964,2.625-1.394,6.321,1.273,8.254c2.594,1.88,6.231,1.408,8.24-1.067l1.277,1.883l1.29-1.899c2.045,2.569,5.818,3.02,8.428,1.006c2.565-1.979,3.057-5.613,1.11-8.185L22.823,9.503L22.823,9.503z"></path>
  <path fill="#212121" d="M12.241,5.001L12,5.003v13.603l1.271-1.871C14.455,18.222,16.219,19,18.001,19c1.295,0,2.6-0.411,3.699-1.258c2.565-1.979,3.057-5.613,1.11-8.185l0.014-0.053c0.257-0.848,0.661-1.635,1.166-2.31L19.987,7.19C17.742,5.804,15.087,5.001,12.241,5.001L12.241,5.001z"></path>
  <path fill="#F4BF10" d="M12.006,12.628c-0.228-3.041-2.765-5.411-5.86-5.477C7.9,6.432,9.82,6.032,11.837,6.032l0.136,0l0.221-0.002c2.025,0,3.952,0.421,5.604,1.143C14.733,7.261,12.232,9.616,12.006,12.628L12.006,12.628L12.006,12.628z"></path>
  <path fill="#D4A60E" d="M11.837,6.032c-2.017,0-3.937,0.4-5.692,1.119C9.217,7.216,11.738,9.551,12,12.559V6.033l-0.026,0L11.837,6.032L11.837,6.032z"></path>
  <path fill="#F8F8F8" d="M6.023,8.338c-2.646,0-4.791,2.113-4.791,4.719c0,2.605,2.146,4.719,4.792,4.719c2.644-0.004,4.788-2.113,4.792-4.717v-0.001C10.816,10.451,8.669,8.338,6.023,8.338L6.023,8.338z M8.91,13.004v0.005c-0.002,1.613-1.331,2.918-2.969,2.915C4.303,15.922,2.977,14.613,2.98,13c0.002-1.612,1.331-2.918,2.97-2.915C7.584,10.09,8.908,11.395,8.91,13.004L8.91,13.004z"></path>
  <path fill="#FFF" d="M7.889,13.005c-0.002,1.055-0.868,1.91-1.939,1.914c-1.074,0.001-1.946-0.853-1.949-1.91C4,11.951,4.868,11.093,5.941,11.091c1.074-0.002,1.948,0.853,1.948,1.91V13.005L7.889,13.005z"></path>
  <path fill="#E86644" d="M5.946,12.022c-0.551,0-0.997,0.439-0.997,0.983c0,0.542,0.446,0.981,0.997,0.981c0.551,0,0.998-0.439,0.998-0.981C6.944,12.462,6.497,12.022,5.946,12.022L5.946,12.022z"></path>
  <path fill="#D8D8D8" d="M5.945,8.339c-2.61,0.041-4.714,2.137-4.714,4.718c0,2.58,2.103,4.677,4.714,4.718v-1.851c-0.001,0-0.003,0-0.004,0C4.303,15.922,2.977,14.613,2.98,13c0.002-1.61,1.328-2.915,2.965-2.915h0V8.339L5.945,8.339z"></path>
  <path fill="#DEDEDE" d="M5.945,11.091c-0.001,0-0.002,0-0.003,0C4.868,11.093,4,11.951,4.002,13.009c0.002,1.056,0.871,1.909,1.944,1.91v-0.933c-0.551,0-0.996-0.44-0.996-0.981c0-0.543,0.446-0.982,0.996-0.983L5.945,11.091L5.945,11.091L5.945,11.091z"></path>
  <path fill="#CA593B" d="M5.945,12.022c-0.551,0.001-0.996,0.44-0.996,0.983c0,0.542,0.446,0.981,0.996,0.981V12.022L5.945,12.022z"></path>
  <path fill="#F8F8F8" d="M22.486,11.447c-0.916-2.444-3.671-3.695-6.154-2.794c-2.483,0.901-3.754,3.615-2.838,6.059v0.001c0.918,2.443,3.672,3.693,6.155,2.792C22.132,16.604,23.402,13.891,22.486,11.447L22.486,11.447z M20.94,13.004v0.002c-0.001,1.612-1.329,2.919-2.967,2.918c-1.638,0-2.964-1.309-2.963-2.92c0.001-1.613,1.329-2.919,2.967-2.918C19.613,10.088,20.938,11.393,20.94,13.004L20.94,13.004z"></path>
  <path fill="#FFF" d="M17.976,14.919c-1.073,0-1.944-0.856-1.944-1.913c0-1.057,0.871-1.915,1.944-1.915c1.073,0,1.945,0.857,1.945,1.914C19.919,14.062,19.05,14.917,17.976,14.919L17.976,14.919z"></path>
  <path fill="#26AA83" d="M17.976,12.022c-0.551,0-0.997,0.439-0.997,0.983c0,0.542,0.446,0.981,0.997,0.981c0.551,0,0.998-0.439,0.998-0.981C18.975,12.462,18.527,12.022,17.976,12.022L17.976,12.022z"></path>
  <path fill="#D8D8D8" d="M17.969,8.361c-0.544,0.002-1.097,0.097-1.637,0.292c-2.483,0.901-3.754,3.615-2.838,6.059v0.001c0.713,1.898,2.534,3.075,4.475,3.084v-1.875c-1.636-0.002-2.96-1.31-2.959-2.92c0.001-1.61,1.325-2.916,2.959-2.918V8.361L17.969,8.361z"></path>
  <path fill="#DEDEDE" d="M17.969,11.091c-1.069,0.004-1.937,0.861-1.937,1.915c0,1.055,0.867,1.909,1.937,1.913v-0.933c-0.547-0.004-0.989-0.442-0.989-0.981c0-0.541,0.442-0.979,0.989-0.982V11.091L17.969,11.091z"></path>
  <path fill="#219472" d="M17.969,12.022c-0.547,0.004-0.989,0.442-0.989,0.982c0,0.54,0.442,0.977,0.989,0.981V12.022L17.969,12.022z"></path>
</svg>
