<svg xmlns="http://www.w3.org/2000/svg" enable-background="new 0 0 3717.7 1724.9" viewBox="0 0 3717.7 1724.9" id="tripadvisor">
  <path d="M3542.6,1504.7c-13.7,0-24.8,11.1-24.8,24.9s11.1,24.8,24.9,24.8c13.7,0,24.8-11.1,24.8-24.8
	C3567.4,1515.9,3556.3,1504.7,3542.6,1504.7z M3542.6,1550.5c-11.6,0-20.9-9.4-20.9-20.9c0-11.6,9.4-20.9,20.9-20.9
	c11.6,0,20.9,9.4,20.9,20.9v0C3563.5,1541.1,3554.2,1550.5,3542.6,1550.5z M3550.7,1525.3c0-4.5-3.2-7.2-7.9-7.2h-8v22.6h3.9v-8.2
	h4.2l4.1,8.2h4.2l-4.5-9C3549.2,1530.7,3550.8,1528.1,3550.7,1525.3z M3542.6,1529.1h-3.8v-7.5h3.8c2.6,0,4.2,1.3,4.2,3.8
	S3545.2,1529.1,3542.6,1529.1z M547.8,1253.2v-60.1h-92.1v357.6h92.1v-214.4c0-38.8,25-57.8,63.8-57.8H662v-85.3H619
	C585.2,1193.1,555.9,1210.7,547.8,1253.2z M748.4,1051.6c-31.5,0-55.7,24.9-55.7,56.4c0,30.8,24.9,55.7,55.7,55.7
	s55.7-24.9,55.7-55.7C804.1,1076.6,779.9,1051.6,748.4,1051.6L748.4,1051.6z M702.4,1550.7h91.9v-357.6h-91.9L702.4,1550.7z
	 M1232.3,1371.9c0,102.1-82.8,184.8-184.8,184.8c-39.2,0.2-77.3-12.6-108.4-36.3v135.2h-91.9v-462.6H939v30.2
	c31.2-23.7,69.3-36.5,108.5-36.3C1149.6,1187.1,1232.4,1269.8,1232.3,1371.9L1232.3,1371.9z M1139.8,1371.9
	c0-55.5-45-100.4-100.4-100.4c-55.5,0-100.4,45-100.4,100.4c0,55.5,45,100.4,100.4,100.4c0,0,0,0,0,0
	C1094.8,1472.4,1139.8,1427.4,1139.8,1371.9C1139.8,1372,1139.8,1371.9,1139.8,1371.9L1139.8,1371.9z M2830.5,1340.5l-53.6-14.7
	c-35.3-9.2-49-20-49-38.7c0-18.2,19.3-30.9,47-30.9c26.3,0,47,17.3,47,39.3v2h84.7v-2c0-64.9-52.9-108.5-131.7-108.5
	c-78.1,0-134.7,43.6-134.7,103.6c0,46.7,31,81.9,85,96.5l51.4,14c39,10.8,53.5,22.8,53.5,44.3c0,22.7-21,37.9-52.2,37.9
	c-32.6,0-54.4-20.6-54.4-51.2v-2h-90v2c0,73.4,59.1,124.6,143.6,124.6c81.5,0,140.6-50,140.6-119
	C2917.8,1404,2902.7,1359.8,2830.5,1340.5L2830.5,1340.5z M1558.5,1193.1h91.9v357.6h-91.9v-30.3c-31.2,23.7-69.3,36.5-108.5,36.3
	c-102.1,0-184.8-82.8-184.8-184.8S1347.9,1187,1450,1187c39.2-0.2,77.3,12.6,108.5,36.3V1193.1z M1558.5,1371.9L1558.5,1371.9
	c0-55.5-45-100.4-100.4-100.4c-55.5,0-100.4,45-100.4,100.4c0,55.5,45,100.4,100.4,100.4C1513.6,1472.4,1558.6,1427.5,1558.5,1371.9
	C1558.6,1372,1558.6,1371.9,1558.5,1371.9L1558.5,1371.9z M1982.5,1065.8h91.9v484.9h-91.9v-30.3c-31.2,23.7-69.3,36.5-108.5,36.3
	c-102.1,0-184.8-82.8-184.8-184.8S1771.9,1187,1874,1187c39.2-0.2,77.3,12.6,108.5,36.3L1982.5,1065.8z M1982.5,1371.9
	c0-55.5-45-100.4-100.4-100.4s-100.4,45-100.4,100.4c0,55.5,45,100.4,100.4,100.4C1937.6,1472.4,1982.5,1427.4,1982.5,1371.9
	C1982.6,1371.9,1982.6,1371.9,1982.5,1371.9L1982.5,1371.9z M2501.4,1550.7h91.9v-357.6h-91.9V1550.7z M2547.4,1051.6
	c-31.5,0-55.7,24.9-55.7,56.4c0,30.8,24.9,55.7,55.6,55.8c30.8,0,55.7-24.9,55.8-55.6c0,0,0-0.1,0-0.1
	C2603.1,1076.6,2578.9,1051.6,2547.4,1051.6L2547.4,1051.6z M3315.3,1371.9c0,102.1-82.8,184.8-184.9,184.8s-184.9-82.8-184.9-184.8
	s82.8-184.8,184.9-184.8S3315.3,1269.8,3315.3,1371.9L3315.3,1371.9z M3230.8,1371.9c0-55.5-45-100.4-100.4-100.4
	c-55.5,0-100.4,45-100.4,100.4s45,100.4,100.4,100.4l0,0C3185.9,1472.3,3230.8,1427.4,3230.8,1371.9
	C3230.8,1371.9,3230.8,1371.9,3230.8,1371.9L3230.8,1371.9z M500.8,1065.8H148v82h130.6v402.9h91.6v-402.9h130.6L500.8,1065.8z
	 M2284.7,1452.8l-81.9-259.7h-96.6l122.7,357.6h110.6l123.4-357.6h-96.6L2284.7,1452.8z M3450.1,1253.2v-60.1h-92.2v357.6h92.2
	v-214.5c0-38.8,24.9-57.9,63.8-57.9h50.4v-85.3h-43.1C3487.4,1193.1,3458.1,1210.7,3450.1,1253.2L3450.1,1253.2z"></path>
  <circle cx="1857.7" cy="539.5" r="470.3" fill="#34e0a1"></circle>
  <path d="M2148.2,447.7l56.8-61.8h-125.8c-133.5-90.8-308.9-90.8-442.3,0h-126.2l56.8,61.8c-70.6,64.8-75.4,174.5-10.6,245.1
	c64.8,70.6,174.5,75.4,245.1,10.6c0.1-0.1,0.2-0.2,0.3-0.3l55.6,60.5l55.6-60.5c32,29.8,74.1,46.3,117.9,46.2
	c95.8,0,173.6-77.7,173.6-173.5C2204.8,527.1,2184.3,480.5,2148.2,447.7z M1684.2,693.3c-64.8,0-117.4-52.6-117.4-117.4
	s52.6-117.4,117.4-117.4c64.8,0,117.4,52.6,117.4,117.4C1801.6,640.7,1749.1,693.3,1684.2,693.3L1684.2,693.3z M1857.8,572.5
	c0-77.3-56.2-143.5-130.3-171.9c83.4-34.7,177.2-34.7,260.6,0C1913.9,429,1857.8,495.3,1857.8,572.5L1857.8,572.5z M2031.2,693.3
	c-64.8,0-117.4-52.6-117.4-117.4c0-64.8,52.6-117.4,117.4-117.4c64.8,0,117.4,52.6,117.4,117.4v0
	C2148.6,640.7,2096,693.3,2031.2,693.3z M2031.2,514.4c-34,0-61.5,27.6-61.5,61.6s27.6,61.5,61.6,61.5c34,0,61.5-27.6,61.5-61.6
	c0,0,0,0,0,0C2092.7,541.9,2065.2,514.4,2031.2,514.4C2031.2,514.4,2031.2,514.4,2031.2,514.4z M1745.8,575.9
	c0,34-27.5,61.6-61.5,61.6c-34,0-61.6-27.5-61.6-61.5c0-34,27.5-61.6,61.5-61.6c0,0,0,0,0,0C1718.2,514.4,1745.8,541.9,1745.8,575.9
	L1745.8,575.9z"></path>
</svg>
