<svg xmlns="http://www.w3.org/2000/svg" xmlns:xlink="http://www.w3.org/1999/xlink" version="1.1" width="256" height="256" viewBox="0 0 256 256" xml:space="preserve">
<g style="stroke: none; stroke-width: 0; stroke-dasharray: none; stroke-linecap: butt; stroke-linejoin: miter; stroke-miterlimit: 10; fill: none; fill-rule: nonzero; opacity: 1;" transform="translate(1.4065934065934016 1.4065934065934016) scale(2.81 2.81)">
	<path d="M 45 0 C 28.967 0 14.902 8.392 6.932 21.015 c 2.729 1.97 6.069 3.145 9.693 3.145 h 32.399 c 17.08 0 32.123 8.704 40.948 21.915 C 89.981 45.716 90 45.36 90 45 C 90 20.147 69.853 0 45 0 z" style="stroke: none; stroke-width: 1; stroke-dasharray: none; stroke-linecap: butt; stroke-linejoin: miter; stroke-miterlimit: 10; fill: rgb(42,181,64); fill-rule: nonzero; opacity: 1;" transform=" matrix(1 0 0 1 0 0) " stroke-linecap="round"/>
	<path d="M 90 45 c 0 -1.207 -0.062 -2.399 -0.155 -3.583 C 81.002 27.735 66.02 20.885 49.024 20.885 H 16.625 c -3.159 0 -6.101 -0.494 -8.614 -1.504 C 3.387 26.046 0.51 34.014 0.063 42.629 c 9.023 11.127 22.794 18.247 38.236 18.247 h 0.744 c 9.038 0 13.101 3.942 13.329 12.925 c 0.004 -0.143 0.022 -0.282 0.022 -0.426 c 0 8.417 -3.516 15.355 -11.172 16.456 C 42.469 89.934 43.726 90 45 90 C 69.853 90 90 69.853 90 45 z" style="stroke: none; stroke-width: 1; stroke-dasharray: none; stroke-linecap: butt; stroke-linejoin: miter; stroke-miterlimit: 10; fill: rgb(38,165,58); fill-rule: nonzero; opacity: 1;" transform=" matrix(1 0 0 1 0 0) " stroke-linecap="round"/>
	<path d="M 41.27 89.834 c 7.988 -1.072 14.169 -7.802 14.378 -16.034 c -0.228 -8.983 -7.566 -16.2 -16.604 -16.2 h -0.744 c -15.296 0 -28.947 -6.992 -37.973 -17.938 C 0.119 41.414 0 43.193 0 45 C 0 68.595 18.164 87.936 41.27 89.834 z" style="stroke: none; stroke-width: 1; stroke-dasharray: none; stroke-linecap: butt; stroke-linejoin: miter; stroke-miterlimit: 10; fill: rgb(36,152,54); fill-rule: nonzero; opacity: 1;" transform=" matrix(1 0 0 1 0 0) " stroke-linecap="round"/>
	<path d="M 62.631 27.266 C 57.953 22.583 51.732 20.003 45.104 20 c -13.657 0 -24.771 11.114 -24.777 24.774 c -0.002 4.367 1.139 8.629 3.307 12.387 L 20.12 70 l 13.134 -3.446 c 3.619 1.974 7.693 3.014 11.84 3.016 h 0.01 c 13.655 0 24.771 -11.115 24.776 -24.776 C 69.883 38.174 67.309 31.949 62.631 27.266 z M 58.168 53.966 c -0.698 1.952 -3.651 3.399 -4.974 3.597 c -0.452 0.067 -1.013 0.132 -1.652 0.132 c -0.794 0 -1.711 -0.099 -2.698 -0.413 c -1.023 -0.325 -2.171 -0.712 -3.623 -1.34 c -5.274 -2.277 -9.086 -6.953 -10.889 -9.538 l -0.096 -0.136 c -0.818 -1.093 -2.721 -3.962 -2.721 -6.995 c 0 -3.248 1.623 -4.979 2.316 -5.718 l 0.113 -0.122 c 0.908 -0.992 1.973 -1.099 2.389 -1.099 c 0.43 0 0.86 0.004 1.235 0.022 c 0.766 -0.04 1.646 0.184 2.268 1.678 l 0.7 1.698 c 0.457 1.113 1.083 2.638 1.181 2.837 c 0.345 0.687 0.362 1.353 0.052 1.976 l -0.083 0.168 c -0.167 0.342 -0.326 0.665 -0.672 1.069 l -0.3 0.361 c -0.237 0.289 -0.476 0.577 -0.683 0.782 c -0.021 0.022 -0.055 0.055 -0.086 0.087 c 0.484 0.828 1.613 2.578 3.219 4.01 c 1.858 1.658 3.448 2.347 4.302 2.717 c 0.19 0.083 0.345 0.15 0.458 0.207 c 0.063 0.031 0.111 0.053 0.148 0.067 c 0.515 -0.588 1.532 -1.797 1.874 -2.31 c 0.87 -1.311 2.057 -0.881 2.566 -0.694 c 0.714 0.259 4.3 2.041 4.336 2.059 l 0.322 0.158 c 0.535 0.258 0.997 0.481 1.275 0.948 C 58.887 50.909 58.641 52.639 58.168 53.966 z" style="stroke: none; stroke-width: 1; stroke-dasharray: none; stroke-linecap: butt; stroke-linejoin: miter; stroke-miterlimit: 10; fill: rgb(255,255,255); fill-rule: nonzero; opacity: 1;" transform=" matrix(1 0 0 1 0 0) " stroke-linecap="round"/>
</g>
</svg>